<svg width="34" height="26" viewBox="0 0 34 26" fill="none" xmlns="http://www.w3.org/2000/svg">
<path d="M5.57143 21.3808H4.04762C2.36447 21.3808 1 20.0163 1 18.3332V4.61891C1 2.93575 2.36447 1.57129 4.04762 1.57129H17.7619C19.4451 1.57129 20.8095 2.93575 20.8095 4.61891V18.3332C20.8095 20.0163 19.4451 21.3808 17.7619 21.3808H16.2381M23.0952 21.3808H22.3333C21.4918 21.3808 20.8095 20.6986 20.8095 19.857V6.90462C20.8095 6.06305 21.4918 5.38081 22.3333 5.38081H26.1724C26.6353 5.38081 27.0731 5.59123 27.3623 5.95271L32.6661 12.5825C32.8822 12.8527 33 13.1884 33 13.5344V19.857C33 20.6986 32.3178 21.3808 31.4762 21.3808M14.7143 20.6189C14.7143 22.7228 13.0087 24.4284 10.9048 24.4284C8.80082 24.4284 7.09524 22.7228 7.09524 20.6189C7.09524 18.515 8.80082 16.8094 10.9048 16.8094C13.0087 16.8094 14.7143 18.515 14.7143 20.6189ZM30.7143 20.6189C30.7143 22.7228 29.0087 24.4284 26.9048 24.4284C24.8008 24.4284 23.0952 22.7228 23.0952 20.6189C23.0952 18.515 24.8008 16.8094 26.9048 16.8094C29.0087 16.8094 30.7143 18.515 30.7143 20.6189Z" stroke="#4F4F4F" stroke-width="1.5" stroke-linecap="round"/>
</svg>
