<svg width="40" height="40" viewBox="0 0 40 40" fill="none" xmlns="http://www.w3.org/2000/svg">
<path d="M8.57143 28.381H7.04762C5.36447 28.381 4 27.0165 4 25.3333V11.6191C4 9.93591 5.36447 8.57144 7.04762 8.57144H20.7619C22.4451 8.57144 23.8095 9.93591 23.8095 11.6191V25.3333C23.8095 27.0165 22.4451 28.381 20.7619 28.381H19.2381M26.0952 28.381H25.3333C24.4918 28.381 23.8095 27.6987 23.8095 26.8572V13.9048C23.8095 13.0632 24.4918 12.381 25.3333 12.381H29.1724C29.6353 12.381 30.0731 12.5914 30.3623 12.9529L35.6661 19.5826C35.8822 19.8528 36 20.1885 36 20.5345V26.8572C36 27.6987 35.3178 28.381 34.4762 28.381M17.7143 27.6191C17.7143 29.723 16.0087 31.4286 13.9048 31.4286C11.8008 31.4286 10.0952 29.723 10.0952 27.6191C10.0952 25.5151 11.8008 23.8095 13.9048 23.8095C16.0087 23.8095 17.7143 25.5151 17.7143 27.6191ZM33.7143 27.6191C33.7143 29.723 32.0087 31.4286 29.9048 31.4286C27.8008 31.4286 26.0952 29.723 26.0952 27.6191C26.0952 25.5151 27.8008 23.8095 29.9048 23.8095C32.0087 23.8095 33.7143 25.5151 33.7143 27.6191Z" stroke="#0060B8" stroke-width="1.5" stroke-linecap="round"/>
</svg>
