<svg width="47" height="27" viewBox="0 0 47 27" fill="none" xmlns="http://www.w3.org/2000/svg">
<path fill-rule="evenodd" clip-rule="evenodd" d="M20 0H27C27.9665 0 28.75 0.783502 28.75 1.75V12.25C28.75 13.2165 27.9665 14 27 14H20C19.0335 14 18.25 13.2165 18.25 12.25V1.75C18.25 0.783501 19.0335 0 20 0ZM20 0.875C19.5168 0.875 19.125 1.26675 19.125 1.75V12.25C19.125 12.7332 19.5168 13.125 20 13.125H27C27.4832 13.125 27.875 12.7332 27.875 12.25V1.75C27.875 1.26675 27.4832 0.875 27 0.875H20Z" fill="#F2994A"/>
<path fill-rule="evenodd" clip-rule="evenodd" d="M20.4375 9.1875C20.4375 8.94588 20.6334 8.75 20.875 8.75H23.5C23.7416 8.75 23.9375 8.94588 23.9375 9.1875C23.9375 9.42912 23.7416 9.625 23.5 9.625H20.875C20.6334 9.625 20.4375 9.42912 20.4375 9.1875Z" fill="#F2994A"/>
<path fill-rule="evenodd" clip-rule="evenodd" d="M20.4375 7.4375C20.4375 7.19588 20.6334 7 20.875 7H26.125C26.3666 7 26.5625 7.19588 26.5625 7.4375C26.5625 7.67912 26.3666 7.875 26.125 7.875H20.875C20.6334 7.875 20.4375 7.67912 20.4375 7.4375Z" fill="#F2994A"/>
<path fill-rule="evenodd" clip-rule="evenodd" d="M20.4375 5.6875C20.4375 5.44588 20.6334 5.25 20.875 5.25H26.125C26.3666 5.25 26.5625 5.44588 26.5625 5.6875C26.5625 5.92912 26.3666 6.125 26.125 6.125H20.875C20.6334 6.125 20.4375 5.92912 20.4375 5.6875Z" fill="#F2994A"/>
<path fill-rule="evenodd" clip-rule="evenodd" d="M20.4375 3.9375C20.4375 3.69588 20.6334 3.5 20.875 3.5H26.125C26.3666 3.5 26.5625 3.69588 26.5625 3.9375C26.5625 4.17912 26.3666 4.375 26.125 4.375H20.875C20.6334 4.375 20.4375 4.17912 20.4375 3.9375Z" fill="#F2994A"/>
<path d="M0.767045 26.0455V18.5455H1.5767V19.4119H1.67614C1.73769 19.3172 1.82292 19.1965 1.93182 19.0497C2.04309 18.9006 2.2017 18.768 2.40767 18.652C2.616 18.5336 2.89773 18.4744 3.25284 18.4744C3.71212 18.4744 4.11695 18.5893 4.46733 18.8189C4.81771 19.0485 5.09115 19.3741 5.28764 19.7955C5.48414 20.2169 5.58239 20.714 5.58239 21.2869C5.58239 21.8646 5.48414 22.3653 5.28764 22.7891C5.09115 23.2105 4.81889 23.5372 4.47088 23.7692C4.12287 23.9988 3.72159 24.1136 3.26705 24.1136C2.91667 24.1136 2.63613 24.0556 2.42543 23.9396C2.21473 23.8213 2.05256 23.6875 1.93892 23.5384C1.82528 23.3868 1.73769 23.2614 1.67614 23.1619H1.60511V26.0455H0.767045ZM1.59091 21.2727C1.59091 21.6847 1.65128 22.0481 1.77202 22.3629C1.89276 22.6754 2.06913 22.9205 2.30114 23.098C2.53314 23.2732 2.81723 23.3608 3.15341 23.3608C3.50379 23.3608 3.79616 23.2685 4.03054 23.0838C4.26728 22.8968 4.44484 22.6458 4.56321 22.331C4.68395 22.0137 4.74432 21.661 4.74432 21.2727C4.74432 20.8892 4.68513 20.5436 4.56676 20.2358C4.45076 19.9257 4.27438 19.6806 4.03764 19.5007C3.80327 19.3184 3.50852 19.2273 3.15341 19.2273C2.8125 19.2273 2.52604 19.3137 2.29403 19.4865C2.06203 19.657 1.88684 19.8961 1.76847 20.2038C1.65009 20.5092 1.59091 20.8655 1.59091 21.2727ZM6.8608 24V18.5455H7.67045V19.3693H7.72727C7.8267 19.0994 8.00663 18.8804 8.26705 18.7124C8.52746 18.5443 8.82102 18.4602 9.14773 18.4602C9.20928 18.4602 9.28622 18.4614 9.37855 18.4638C9.47088 18.4661 9.54072 18.4697 9.58807 18.4744V19.3267C9.55966 19.3196 9.49456 19.3089 9.39276 19.2947C9.29332 19.2782 9.18797 19.2699 9.0767 19.2699C8.81155 19.2699 8.57481 19.3255 8.36648 19.4368C8.16051 19.5457 7.99716 19.6972 7.87642 19.8913C7.75805 20.0831 7.69886 20.3021 7.69886 20.5483V24H6.8608ZM12.6314 24.1136C12.139 24.1136 11.7069 23.9964 11.3352 23.7621C10.9659 23.5277 10.6771 23.1998 10.4688 22.7784C10.2628 22.357 10.1598 21.8646 10.1598 21.3011C10.1598 20.733 10.2628 20.237 10.4688 19.8132C10.6771 19.3894 10.9659 19.0604 11.3352 18.826C11.7069 18.5916 12.139 18.4744 12.6314 18.4744C13.1238 18.4744 13.5547 18.5916 13.924 18.826C14.2957 19.0604 14.5845 19.3894 14.7905 19.8132C14.9988 20.237 15.103 20.733 15.103 21.3011C15.103 21.8646 14.9988 22.357 14.7905 22.7784C14.5845 23.1998 14.2957 23.5277 13.924 23.7621C13.5547 23.9964 13.1238 24.1136 12.6314 24.1136ZM12.6314 23.3608C13.0054 23.3608 13.3132 23.2649 13.5547 23.0732C13.7962 22.8814 13.9749 22.6293 14.0909 22.3168C14.2069 22.0043 14.2649 21.6657 14.2649 21.3011C14.2649 20.9366 14.2069 20.5968 14.0909 20.282C13.9749 19.9671 13.7962 19.7126 13.5547 19.5185C13.3132 19.3243 13.0054 19.2273 12.6314 19.2273C12.2573 19.2273 11.9496 19.3243 11.7081 19.5185C11.4666 19.7126 11.2879 19.9671 11.1719 20.282C11.0559 20.5968 10.9979 20.9366 10.9979 21.3011C10.9979 21.6657 11.0559 22.0043 11.1719 22.3168C11.2879 22.6293 11.4666 22.8814 11.7081 23.0732C11.9496 23.2649 12.2573 23.3608 12.6314 23.3608ZM16.3823 26.0455V18.5455H17.1919V19.4119H17.2914C17.3529 19.3172 17.4382 19.1965 17.5471 19.0497C17.6583 18.9006 17.8169 18.768 18.0229 18.652C18.2312 18.5336 18.513 18.4744 18.8681 18.4744C19.3274 18.4744 19.7322 18.5893 20.0826 18.8189C20.4329 19.0485 20.7064 19.3741 20.9029 19.7955C21.0994 20.2169 21.1976 20.714 21.1976 21.2869C21.1976 21.8646 21.0994 22.3653 20.9029 22.7891C20.7064 23.2105 20.4341 23.5372 20.0861 23.7692C19.7381 23.9988 19.3368 24.1136 18.8823 24.1136C18.5319 24.1136 18.2514 24.0556 18.0407 23.9396C17.83 23.8213 17.6678 23.6875 17.5542 23.5384C17.4405 23.3868 17.3529 23.2614 17.2914 23.1619H17.2203V26.0455H16.3823ZM17.2061 21.2727C17.2061 21.6847 17.2665 22.0481 17.3873 22.3629C17.508 22.6754 17.6844 22.9205 17.9164 23.098C18.1484 23.2732 18.4325 23.3608 18.7686 23.3608C19.119 23.3608 19.4114 23.2685 19.6458 23.0838C19.8825 22.8968 20.0601 22.6458 20.1784 22.331C20.2992 22.0137 20.3596 21.661 20.3596 21.2727C20.3596 20.8892 20.3004 20.5436 20.182 20.2358C20.066 19.9257 19.8896 19.6806 19.6529 19.5007C19.4185 19.3184 19.1238 19.2273 18.7686 19.2273C18.4277 19.2273 18.1413 19.3137 17.9093 19.4865C17.6773 19.657 17.5021 19.8961 17.3837 20.2038C17.2653 20.5092 17.2061 20.8655 17.2061 21.2727ZM24.6919 24.1136C24.1995 24.1136 23.7675 23.9964 23.3958 23.7621C23.0265 23.5277 22.7376 23.1998 22.5293 22.7784C22.3233 22.357 22.2203 21.8646 22.2203 21.3011C22.2203 20.733 22.3233 20.237 22.5293 19.8132C22.7376 19.3894 23.0265 19.0604 23.3958 18.826C23.7675 18.5916 24.1995 18.4744 24.6919 18.4744C25.1844 18.4744 25.6152 18.5916 25.9846 18.826C26.3562 19.0604 26.6451 19.3894 26.851 19.8132C27.0594 20.237 27.1635 20.733 27.1635 21.3011C27.1635 21.8646 27.0594 22.357 26.851 22.7784C26.6451 23.1998 26.3562 23.5277 25.9846 23.7621C25.6152 23.9964 25.1844 24.1136 24.6919 24.1136ZM24.6919 23.3608C25.066 23.3608 25.3738 23.2649 25.6152 23.0732C25.8567 22.8814 26.0355 22.6293 26.1515 22.3168C26.2675 22.0043 26.3255 21.6657 26.3255 21.3011C26.3255 20.9366 26.2675 20.5968 26.1515 20.282C26.0355 19.9671 25.8567 19.7126 25.6152 19.5185C25.3738 19.3243 25.066 19.2273 24.6919 19.2273C24.3179 19.2273 24.0101 19.3243 23.7686 19.5185C23.5272 19.7126 23.3484 19.9671 23.2324 20.282C23.1164 20.5968 23.0584 20.9366 23.0584 21.3011C23.0584 21.6657 23.1164 22.0043 23.2324 22.3168C23.3484 22.6293 23.5272 22.8814 23.7686 23.0732C24.0101 23.2649 24.3179 23.3608 24.6919 23.3608ZM32.3065 19.767L31.5536 19.9801C31.5063 19.8546 31.4364 19.7327 31.3441 19.6143C31.2541 19.4936 31.131 19.3942 30.9748 19.3161C30.8185 19.2379 30.6185 19.1989 30.3746 19.1989C30.0408 19.1989 29.7627 19.2758 29.5401 19.4297C29.32 19.5812 29.2099 19.7741 29.2099 20.0085C29.2099 20.2169 29.2856 20.3814 29.4371 20.5021C29.5887 20.6229 29.8254 20.7235 30.1474 20.804L30.957 21.0028C31.4447 21.1212 31.8081 21.3023 32.0472 21.5462C32.2863 21.7876 32.4059 22.099 32.4059 22.4801C32.4059 22.7926 32.3159 23.072 32.136 23.3182C31.9585 23.5644 31.7099 23.7585 31.3903 23.9006C31.0707 24.0426 30.699 24.1136 30.2752 24.1136C29.7189 24.1136 29.2584 23.9929 28.8938 23.7514C28.5292 23.5099 28.2984 23.1572 28.2013 22.6932L28.9968 22.4943C29.0726 22.7879 29.2158 23.008 29.4265 23.1548C29.6396 23.3016 29.9177 23.375 30.261 23.375C30.6516 23.375 30.9618 23.2921 31.1914 23.1264C31.4234 22.9583 31.5394 22.7571 31.5394 22.5227C31.5394 22.3333 31.4731 22.1747 31.3406 22.0469C31.208 21.9167 31.0044 21.8196 30.7298 21.7557L29.8207 21.5426C29.3211 21.4242 28.9542 21.2408 28.7198 20.9922C28.4878 20.7412 28.3718 20.4276 28.3718 20.0511C28.3718 19.7434 28.4582 19.4711 28.631 19.2344C28.8062 18.9976 29.0442 18.8118 29.3448 18.6768C29.6478 18.5419 29.9911 18.4744 30.3746 18.4744C30.9144 18.4744 31.3382 18.5928 31.646 18.8295C31.9561 19.0663 32.1763 19.3788 32.3065 19.767ZM35.2725 24.1278C34.9269 24.1278 34.6132 24.0627 34.3315 23.9325C34.0498 23.8 33.8261 23.6094 33.6603 23.3608C33.4946 23.1098 33.4118 22.8068 33.4118 22.4517C33.4118 22.1392 33.4733 21.8859 33.5964 21.6918C33.7195 21.4953 33.8841 21.3414 34.09 21.2301C34.296 21.1188 34.5233 21.036 34.7718 20.9815C35.0228 20.9247 35.2749 20.8797 35.5282 20.8466C35.8597 20.804 36.1284 20.772 36.3343 20.7507C36.5427 20.727 36.6942 20.688 36.7889 20.6335C36.8859 20.5791 36.9345 20.4844 36.9345 20.3494V20.321C36.9345 19.9706 36.8386 19.6984 36.6468 19.5043C36.4574 19.3101 36.1698 19.2131 35.7839 19.2131C35.3838 19.2131 35.0701 19.3007 34.8429 19.4759C34.6156 19.651 34.4558 19.8381 34.3635 20.0369L33.568 19.7528C33.71 19.4214 33.8994 19.1634 34.1362 18.9787C34.3753 18.7917 34.6357 18.6615 34.9174 18.5881C35.2015 18.5123 35.4809 18.4744 35.7555 18.4744C35.9307 18.4744 36.1319 18.4957 36.3592 18.5384C36.5888 18.5786 36.8102 18.6626 37.0233 18.7905C37.2387 18.9183 37.4174 19.1113 37.5595 19.3693C37.7015 19.6274 37.7725 19.973 37.7725 20.4062V24H36.9345V23.2614H36.8919C36.835 23.3797 36.7404 23.5064 36.6078 23.6413C36.4752 23.7763 36.2988 23.8911 36.0787 23.9858C35.8585 24.0805 35.5898 24.1278 35.2725 24.1278ZM35.4004 23.375C35.7318 23.375 36.0112 23.3099 36.2385 23.1797C36.4681 23.0495 36.6409 22.8814 36.7569 22.6754C36.8753 22.4695 36.9345 22.2528 36.9345 22.0256V21.2585C36.899 21.3011 36.8208 21.3402 36.7001 21.3757C36.5817 21.4089 36.4444 21.4384 36.2882 21.4645C36.1343 21.4882 35.984 21.5095 35.8372 21.5284C35.6928 21.545 35.5756 21.5592 35.4856 21.571C35.2678 21.5994 35.0642 21.6456 34.8748 21.7095C34.6878 21.7711 34.5363 21.8646 34.4203 21.9901C34.3066 22.1132 34.2498 22.2812 34.2498 22.4943C34.2498 22.7855 34.3575 23.0057 34.573 23.1548C34.7908 23.3016 35.0666 23.375 35.4004 23.375ZM40.1403 16.7273V24H39.3022V16.7273H40.1403ZM45.5389 19.767L44.786 19.9801C44.7387 19.8546 44.6689 19.7327 44.5765 19.6143C44.4866 19.4936 44.3635 19.3942 44.2072 19.3161C44.051 19.2379 43.8509 19.1989 43.6071 19.1989C43.2733 19.1989 42.9951 19.2758 42.7725 19.4297C42.5524 19.5812 42.4423 19.7741 42.4423 20.0085C42.4423 20.2169 42.5181 20.3814 42.6696 20.5021C42.8211 20.6229 43.0578 20.7235 43.3798 20.804L44.1895 21.0028C44.6771 21.1212 45.0405 21.3023 45.2797 21.5462C45.5188 21.7876 45.6383 22.099 45.6383 22.4801C45.6383 22.7926 45.5484 23.072 45.3684 23.3182C45.1909 23.5644 44.9423 23.7585 44.6227 23.9006C44.3031 24.0426 43.9314 24.1136 43.5076 24.1136C42.9513 24.1136 42.4908 23.9929 42.1262 23.7514C41.7617 23.5099 41.5308 23.1572 41.4338 22.6932L42.2292 22.4943C42.305 22.7879 42.4482 23.008 42.6589 23.1548C42.872 23.3016 43.1502 23.375 43.4934 23.375C43.8841 23.375 44.1942 23.2921 44.4238 23.1264C44.6558 22.9583 44.7718 22.7571 44.7718 22.5227C44.7718 22.3333 44.7056 22.1747 44.573 22.0469C44.4404 21.9167 44.2368 21.8196 43.9622 21.7557L43.0531 21.5426C42.5536 21.4242 42.1866 21.2408 41.9522 20.9922C41.7202 20.7412 41.6042 20.4276 41.6042 20.0511C41.6042 19.7434 41.6906 19.4711 41.8635 19.2344C42.0386 18.9976 42.2766 18.8118 42.5772 18.6768C42.8803 18.5419 43.2235 18.4744 43.6071 18.4744C44.1468 18.4744 44.5706 18.5928 44.8784 18.8295C45.1885 19.0663 45.4087 19.3788 45.5389 19.767Z" fill="#F2994A"/>
</svg>
