<svg width="25" height="31" viewBox="0 0 25 31" fill="none" xmlns="http://www.w3.org/2000/svg">
<path d="M8.45703 0H13.957V0.875H8.45703C7.90475 0.875 7.45703 1.26675 7.45703 1.75V12.25C7.45703 12.7332 7.90475 13.125 8.45703 13.125H16.457C17.0093 13.125 17.457 12.7332 17.457 12.25V3.9375H18.457V12.25C18.457 13.2165 17.5616 14 16.457 14H8.45703C7.35246 14 6.45703 13.2165 6.45703 12.25V1.75C6.45703 0.783501 7.35246 0 8.45703 0Z" fill="#27AE60"/>
<path d="M13.957 2.625V0L18.457 3.9375H15.457C14.6286 3.9375 13.957 3.34987 13.957 2.625Z" fill="#27AE60"/>
<path fill-rule="evenodd" clip-rule="evenodd" d="M15.3106 6.25314C15.5058 6.424 15.5058 6.70101 15.3106 6.87186L12.3106 9.49686C12.2168 9.57891 12.0896 9.625 11.957 9.625C11.8244 9.625 11.6972 9.57891 11.6035 9.49686L10.1035 8.18436C9.90822 8.0135 9.90822 7.7365 10.1035 7.56564C10.2987 7.39479 10.6153 7.39479 10.8106 7.56564L11.957 8.56878L14.6035 6.25314C14.7987 6.08229 15.1153 6.08229 15.3106 6.25314Z" fill="#27AE60"/>
<path d="M5.31499 23.5455C5.27237 23.1856 5.09955 22.9062 4.79652 22.7074C4.49349 22.5085 4.1218 22.4091 3.68146 22.4091C3.35949 22.4091 3.07777 22.4612 2.83629 22.5653C2.59718 22.6695 2.41016 22.8127 2.27521 22.995C2.14264 23.1773 2.07635 23.3845 2.07635 23.6165C2.07635 23.8106 2.12251 23.9775 2.21484 24.1172C2.30954 24.2545 2.43028 24.3693 2.57706 24.4616C2.72384 24.5516 2.87772 24.6262 3.03871 24.6854C3.19969 24.7422 3.34766 24.7884 3.4826 24.8239L4.22124 25.0227C4.41063 25.0724 4.62133 25.1411 4.85334 25.2287C5.08771 25.3163 5.31143 25.4358 5.5245 25.5874C5.73994 25.7365 5.9175 25.9283 6.05717 26.1626C6.19685 26.397 6.26669 26.6847 6.26669 27.0256C6.26669 27.4186 6.16371 27.7737 5.95774 28.0909C5.75414 28.4081 5.45585 28.6603 5.06286 28.8473C4.67223 29.0343 4.19756 29.1278 3.63885 29.1278C3.11802 29.1278 2.66702 29.0438 2.28587 28.8757C1.90708 28.7076 1.60878 28.4732 1.39098 28.1726C1.17554 27.8719 1.05362 27.5227 1.02521 27.125H1.9343C1.95798 27.3996 2.05031 27.6269 2.21129 27.8068C2.37464 27.9844 2.58061 28.117 2.82919 28.2045C3.08014 28.2898 3.35002 28.3324 3.63885 28.3324C3.97502 28.3324 4.27687 28.2779 4.54439 28.169C4.81191 28.0578 5.02379 27.9039 5.18004 27.7074C5.33629 27.5085 5.41442 27.2765 5.41442 27.0114C5.41442 26.7699 5.34695 26.5734 5.212 26.4219C5.07706 26.2704 4.8995 26.1473 4.67933 26.0526C4.45916 25.9579 4.22124 25.875 3.96555 25.804L3.07067 25.5483C2.50249 25.3849 2.05268 25.1518 1.72124 24.8487C1.3898 24.5457 1.22408 24.1491 1.22408 23.6591C1.22408 23.2519 1.33416 22.8968 1.55433 22.5938C1.77687 22.2884 2.07517 22.0516 2.44922 21.8835C2.82564 21.7131 3.24586 21.6278 3.70987 21.6278C4.17862 21.6278 4.59529 21.7119 4.95987 21.88C5.32446 22.0457 5.61328 22.273 5.82635 22.5618C6.04179 22.8506 6.15542 23.1785 6.16726 23.5455H5.31499ZM9.20614 29.1278C8.8605 29.1278 8.54682 29.0627 8.26509 28.9325C7.98337 28.8 7.75965 28.6094 7.59393 28.3608C7.42821 28.1098 7.34535 27.8068 7.34535 27.4517C7.34535 27.1392 7.4069 26.8859 7.53001 26.6918C7.65311 26.4953 7.81765 26.3414 8.02362 26.2301C8.22958 26.1188 8.45685 26.036 8.70543 25.9815C8.95638 25.9247 9.20851 25.8797 9.46183 25.8466C9.79326 25.804 10.062 25.772 10.2679 25.7507C10.4763 25.727 10.6278 25.688 10.7225 25.6335C10.8195 25.5791 10.8681 25.4844 10.8681 25.3494V25.321C10.8681 24.9706 10.7722 24.6984 10.5804 24.5043C10.391 24.3101 10.1034 24.2131 9.71751 24.2131C9.31741 24.2131 9.00373 24.3007 8.77646 24.4759C8.54918 24.651 8.38938 24.8381 8.29705 25.0369L7.5016 24.7528C7.64364 24.4214 7.83304 24.1634 8.06978 23.9787C8.30889 23.7917 8.56931 23.6615 8.85103 23.5881C9.13512 23.5123 9.41448 23.4744 9.6891 23.4744C9.86429 23.4744 10.0655 23.4957 10.2928 23.5384C10.5224 23.5786 10.7438 23.6626 10.9569 23.7905C11.1723 23.9183 11.351 24.1113 11.4931 24.3693C11.6351 24.6274 11.7061 24.973 11.7061 25.4062V29H10.8681V28.2614H10.8255C10.7686 28.3797 10.6739 28.5064 10.5414 28.6413C10.4088 28.7763 10.2324 28.8911 10.0123 28.9858C9.79208 29.0805 9.52338 29.1278 9.20614 29.1278ZM9.33398 28.375C9.66542 28.375 9.94478 28.3099 10.1721 28.1797C10.4017 28.0495 10.5745 27.8814 10.6905 27.6754C10.8089 27.4695 10.8681 27.2528 10.8681 27.0256V26.2585C10.8326 26.3011 10.7544 26.3402 10.6337 26.3757C10.5153 26.4089 10.378 26.4384 10.2218 26.4645C10.0679 26.4882 9.91755 26.5095 9.77077 26.5284C9.62636 26.545 9.50917 26.5592 9.41921 26.571C9.20141 26.5994 8.99781 26.6456 8.80842 26.7095C8.62139 26.7711 8.46987 26.8646 8.35387 26.9901C8.24023 27.1132 8.18342 27.2812 8.18342 27.4943C8.18342 27.7855 8.29113 28.0057 8.50657 28.1548C8.72437 28.3016 9.00018 28.375 9.33398 28.375ZM17.5007 23.5455L15.4837 29H14.6314L12.6143 23.5455H13.5234L15.0291 27.892H15.0859L16.5916 23.5455H17.5007ZM20.6985 29.1136C20.1729 29.1136 19.7196 28.9976 19.3384 28.7656C18.9596 28.5312 18.6673 28.2045 18.4613 27.7855C18.2577 27.3641 18.1559 26.8741 18.1559 26.3153C18.1559 25.7566 18.2577 25.2642 18.4613 24.8381C18.6673 24.4096 18.9537 24.0758 19.3207 23.8366C19.69 23.5952 20.1209 23.4744 20.6133 23.4744C20.8974 23.4744 21.1779 23.5218 21.4549 23.6165C21.7319 23.7112 21.984 23.8651 22.2113 24.0781C22.4386 24.2888 22.6197 24.5682 22.7546 24.9162C22.8896 25.2642 22.957 25.6927 22.957 26.2017V26.5568H18.7525V25.8324H22.1048C22.1048 25.5246 22.0432 25.25 21.9201 25.0085C21.7994 24.767 21.6265 24.5765 21.4016 24.4368C21.1791 24.2971 20.9163 24.2273 20.6133 24.2273C20.2795 24.2273 19.9906 24.3101 19.7468 24.4759C19.5053 24.6392 19.3195 24.8523 19.1893 25.1151C19.0591 25.3778 18.994 25.6596 18.994 25.9602V26.4432C18.994 26.8551 19.065 27.2043 19.207 27.4908C19.3514 27.7749 19.5515 27.9915 19.8072 28.1406C20.0629 28.2874 20.36 28.3608 20.6985 28.3608C20.9187 28.3608 21.1175 28.33 21.2951 28.2685C21.475 28.2045 21.6301 28.1098 21.7603 27.9844C21.8905 27.8565 21.9911 27.6979 22.0621 27.5085L22.8718 27.7358C22.7866 28.0104 22.6433 28.2519 22.4421 28.4602C22.2409 28.6662 21.9923 28.8272 21.6964 28.9432C21.4004 29.0568 21.0678 29.1136 20.6985 29.1136Z" fill="#27AE60"/>
</svg>
